<?xml version="1.0" encoding="utf-8"?>
<!-- Generator: Adobe Illustrator 16.0.0, SVG Export Plug-In . SVG Version: 6.00 Build 0)  -->
<!DOCTYPE svg PUBLIC "-//W3C//DTD SVG 1.1//EN" "http://www.w3.org/Graphics/SVG/1.1/DTD/svg11.dtd">
<svg version="1.1" xmlns="http://www.w3.org/2000/svg" xmlns:xlink="http://www.w3.org/1999/xlink" x="0px" y="0px" width="356px"
	 height="188.491px" viewBox="0 0 356 188.491" enable-background="new 0 0 356 188.491" xml:space="preserve">
<g id="Layer_1">
	<g>
		<polygon fill="#5C8CC6" points="-196.089,188.491 -196.089,178.985 -376,92.116 -376,101.622 		"/>
		<polygon fill="#2D6DAD" points="-196.089,188.491 -196.089,178.985 -20,92.116 -20,101.622 		"/>
		<polygon fill="#90B1E0" points="-196.089,178.985 -376,92.116 -198.151,0 -20,92.116 		"/>
	</g>
	<g display="none">
		<polygon display="inline" fill="#90B1E0" points="-196.089,-82.415 -376,-175.065 -198,-259.509 -20,-175.065 		"/>
		<polygon display="inline" fill="#5C8CC6" points="-196.089,-82.415 -195.857,188.491 -376,96.255 -376,-175.065 		"/>
		<polygon display="inline" fill="#2D6DAD" points="-196.214,-82.415 -195.857,188.491 -20,101.839 -20,-175.065 		"/>
	</g>
</g>
<g id="Layer_2" display="none">
	<polygon display="inline" fill="#E2A759" points="-312.645,-142.438 -312.645,132.213 -279.076,148.421 -279.076,-125.151 	"/>
	<polygon display="inline" fill="#F2C38B" points="-312.645,-142.438 -129.08,-226.813 -95.039,-210.821 -279.076,-125.151 	"/>
	<polygon display="inline" fill="#F2C38B" points="-79.535,-143.688 -263.632,-228.373 -297.506,-212.303 -113.104,-125.901 	"/>
	<polygon display="inline" fill="#CE8024" points="-79.535,-143.74 -79.535,131.175 -113.104,147.671 -113.104,-125.901 	"/>
</g>
<g id="Layer_3">
	<g>
		<polygon fill="#5C8CC6" points="179.911,188.491 179.911,178.985 0,92.116 0,101.622 		"/>
		<polygon fill="#2D6DAD" points="179.911,188.491 179.911,178.985 356,92.116 356,101.622 		"/>
		<polygon fill="#90B1E0" points="179.911,178.985 0,92.116 177.849,0 356,92.116 		"/>
	</g>
</g>
</svg>
